<?xml version="1.0" encoding="UTF-8"?>
<!--
Copyright (C) 2023-2024  ANSSI
SPDX-License-Identifier: MIT
-->
<svg width="149.4mm" height="150.6mm" version="1.1" viewBox="0 0 149.4 150.6" xml:space="preserve" xmlns="http://www.w3.org/2000/svg">
    <path d="m74.67-.002067a74.68 75.27 0 00-74.68 75.27 74.68 75.27 0 0074.68 75.27 74.68 75.27 0 0074.68-75.27 74.68 75.27 0 00-74.68-75.27zm49.9 58.22c4.503 0 8.103 1.513 10.8 4.539 2.696 3.012 4.045 7.056 4.045 12.13 0 5.063-1.348 9.107-4.045 12.13-2.696 3.012-6.296 4.518-10.8 4.518-4.518 0-8.132-1.506-10.84-4.518-2.696-3.012-4.045-7.056-4.045-12.13 0-5.077 1.348-9.122 4.045-12.13 2.711-3.026 6.325-4.539 10.84-4.539zm-112.8.5808h8.928c6.225 0 10.79 1.298 13.7 3.894 2.911 2.582 4.367 6.626 4.367 12.13 0 5.536-1.463 9.602-4.389 12.2-2.926 2.596-7.487 3.894-13.68 3.894h-8.928v-32.12zm33.93 0h20.31v3.657h-15.96v9.509h15.3v3.657h-15.3v11.64h16.35v3.657h-20.7v-32.12zm27.84 0h6.476l8.197 21.86 8.239-21.86h6.476v32.12h-4.238v-28.2l-8.283 22.03h-4.367l-8.283-22.03v28.2h-4.217v-32.12zm51.05 2.948c-3.155 0-5.665 1.176-7.53 3.528-1.85 2.352-2.776 5.558-2.776 9.616 0 4.045.9254 7.243 2.776 9.595 1.864 2.352 4.374 3.528 7.53 3.528s5.651-1.176 7.486-3.528c1.85-2.352 2.776-5.55 2.776-9.595 0-4.059-.9254-7.264-2.776-9.616-1.836-2.352-4.331-3.528-7.486-3.528zm-108.5.6237v24.98h5.249c4.432 0 7.674-1.004 9.724-3.012 2.065-2.008 3.097-5.178 3.097-9.509 0-4.303-1.032-7.451-3.097-9.444-2.051-2.008-5.293-3.012-9.724-3.012h-5.249z" fill="#eee"/>
</svg>
